<?xml version="1.0" standalone="no"?>
<!DOCTYPE svg PUBLIC "-//W3C//DTD SVG 20010904//EN"
 "http://www.w3.org/TR/2001/REC-SVG-20010904/DTD/svg10.dtd">
<svg version="1.0" xmlns="http://www.w3.org/2000/svg"
 width="260.000000pt" height="260.000000pt" viewBox="0 0 260.000000 260.000000"
 preserveAspectRatio="xMidYMid meet">
<metadata>
Created by potrace 1.11, written by Peter Selinger 2001-2013
</metadata>
<g transform="translate(0.000000,260.000000) scale(0.100000,-0.100000)"
fill="#000000" stroke="none">
<path d="M1030 2235 c0 -31 3 -35 25 -35 22 0 25 4 25 35 0 31 -3 35 -25 35
-22 0 -25 -4 -25 -35z"/>
<path d="M1350 2225 c0 -31 3 -35 25 -35 22 0 25 4 25 35 0 31 -3 35 -25 35
-22 0 -25 -4 -25 -35z"/>
<path d="M2046 2228 c-3 -7 -6 -95 -8 -195 -3 -183 -3 -183 19 -183 12 0 24 4
27 8 2 4 6 91 7 192 2 183 2 185 -19 188 -12 2 -24 -3 -26 -10z"/>
<path d="M1160 2195 c0 -24 -5 -35 -15 -35 -20 0 -19 -37 2 -48 14 -8 15 -21
10 -85 -10 -119 15 -157 104 -157 24 0 29 4 29 24 0 21 -5 25 -37 28 l-38 3
-3 93 -3 92 46 0 c38 0 45 3 45 20 0 15 -7 20 -29 20 -49 0 -61 9 -61 46 0 30
-3 34 -25 34 -22 0 -25 -4 -25 -35z"/>
<path d="M630 2174 c-32 -13 -71 -60 -81 -97 -22 -84 18 -167 90 -187 66 -18
132 8 117 45 -4 12 -10 14 -25 5 -34 -18 -80 -12 -106 15 -20 19 -25 34 -25
73 0 87 53 123 134 92 23 -9 26 -7 26 15 0 13 -4 27 -10 30 -15 9 -103 15
-120 9z"/>
<path d="M826 2109 c-3 -34 -6 -97 -6 -139 0 -77 6 -90 39 -90 5 0 11 43 13
95 6 118 21 145 78 145 36 0 40 3 40 25 0 22 -4 25 -33 25 -18 0 -43 -7 -55
-16 -20 -14 -22 -14 -22 0 0 10 -9 16 -24 16 -21 0 -24 -5 -30 -61z"/>
<path d="M1026 2108 c-3 -29 -6 -92 -6 -140 0 -87 0 -88 25 -88 24 0 25 3 25
58 0 31 3 94 7 140 l6 82 -25 0 c-23 0 -26 -5 -32 -52z"/>
<path d="M1347 2043 c-11 -170 -11 -173 17 -173 22 0 23 5 30 77 3 42 6 105 6
140 0 59 -1 63 -23 63 -23 0 -24 -3 -30 -107z"/>
<path d="M1530 2132 c-91 -45 -94 -200 -4 -258 26 -18 110 -24 133 -10 6 4 11
18 11 31 0 22 -3 24 -26 15 -88 -34 -155 40 -124 134 6 20 21 41 32 47 21 11
79 8 111 -5 14 -7 17 -3 17 18 0 46 -84 62 -150 28z"/>
<path d="M1768 2133 c-11 -3 -18 -14 -18 -30 0 -18 4 -24 14 -20 64 25 122 12
137 -30 8 -22 6 -23 -56 -23 -84 0 -117 -25 -119 -89 -1 -35 4 -47 27 -67 33
-28 91 -32 125 -8 20 14 22 14 22 0 0 -10 9 -16 24 -16 22 0 23 4 29 88 11
151 -20 203 -117 201 -28 -1 -59 -3 -68 -6z m132 -168 c0 -29 -40 -75 -65 -75
-32 0 -55 20 -55 48 0 40 17 52 72 52 45 0 48 -2 48 -25z"/>
<path d="M866 1519 c-38 -30 -56 -71 -56 -127 0 -83 54 -142 130 -142 59 0 80
10 80 36 0 22 -3 24 -27 17 -85 -23 -128 9 -128 93 0 49 3 59 29 81 30 25 48
26 114 7 18 -5 22 -2 22 14 0 28 -29 42 -88 42 -35 0 -57 -6 -76 -21z"/>
<path d="M1165 1535 c-5 -2 -22 -6 -37 -9 -21 -5 -28 -12 -28 -31 0 -22 2 -24
26 -15 40 16 89 12 107 -8 28 -31 21 -42 -27 -42 -93 0 -145 -45 -132 -115 12
-62 83 -92 143 -61 27 14 32 14 37 1 3 -8 15 -15 26 -15 19 0 20 6 20 114 0
130 -12 157 -78 176 -39 10 -41 11 -57 5z m85 -174 c0 -10 -9 -30 -21 -45 -44
-55 -132 -18 -100 43 10 17 21 21 66 21 47 0 55 -3 55 -19z"/>
<path d="M1478 1516 c-21 -8 -38 -10 -38 -5 0 5 -11 9 -24 9 -22 0 -23 -4 -30
-92 -3 -50 -6 -113 -6 -140 0 -44 2 -48 24 -48 23 0 24 3 31 100 6 92 9 101
33 121 19 14 35 19 54 15 24 -5 28 -2 28 18 0 18 -20 39 -33 36 -1 -1 -19 -7
-39 -14z"/>
<path d="M1630 1508 c-43 -23 -70 -75 -70 -135 0 -96 46 -145 139 -146 67 -1
91 10 91 39 0 22 -3 24 -22 17 -13 -4 -45 -8 -71 -8 -39 0 -53 5 -68 24 -10
13 -19 32 -19 43 0 18 6 19 98 17 94 -3 97 -2 100 19 5 33 -15 86 -43 112 -29
27 -99 37 -135 18z m96 -46 c11 -7 34 -45 34 -56 0 -3 -34 -6 -75 -6 -41 0
-75 4 -75 9 0 4 9 20 21 35 20 26 69 36 95 18z"/>
<path d="M720 990 c0 -25 4 -30 25 -30 21 0 25 5 25 30 0 25 -4 30 -25 30 -21
0 -25 -5 -25 -30z"/>
<path d="M1020 943 c0 -62 -1 -65 -17 -50 -49 43 -128 24 -158 -39 -32 -67
-18 -174 28 -213 26 -21 84 -25 111 -8 14 9 26 13 28 8 2 -5 12 -11 24 -15 19
-6 22 -2 28 40 3 26 6 114 6 195 l0 149 -25 0 c-24 0 -25 -2 -25 -67z m-40
-83 c24 -13 43 -79 34 -117 -12 -52 -32 -73 -69 -73 -45 0 -65 29 -65 96 0 81
45 123 100 94z"/>
<path d="M1447 863 c-4 -75 -7 -162 -7 -195 0 -54 2 -58 23 -58 23 0 24 2 30
128 4 70 7 157 7 195 0 64 -1 67 -23 67 -24 0 -24 -2 -30 -137z"/>
<path d="M1587 993 c-4 -3 -7 -19 -7 -35 0 -23 4 -28 25 -28 22 0 25 4 25 35
0 27 -4 35 -18 35 -10 0 -22 -3 -25 -7z"/>
<path d="M125 907 c-55 -55 -59 -157 -9 -217 32 -38 80 -48 124 -25 l33 17 -7
-29 c-4 -15 -14 -35 -22 -43 -15 -15 -76 -19 -111 -7 -20 7 -23 5 -23 -16 0
-28 20 -37 91 -37 55 0 93 25 107 73 6 17 13 94 17 170 l6 137 -25 0 c-17 0
-26 -6 -26 -16 0 -13 -5 -12 -26 5 -41 32 -89 28 -129 -12z m131 -42 c22 -34
15 -132 -11 -151 -27 -20 -69 -17 -90 6 -25 27 -25 108 -2 144 24 36 80 37
103 1z"/>
<path d="M407 924 c-4 -4 -7 -54 -7 -111 0 -108 13 -154 45 -167 26 -9 84 -7
106 4 13 8 19 7 19 0 0 -6 12 -10 28 -8 l27 3 3 138 3 137 -25 0 c-24 0 -24
-2 -28 -101 -3 -92 -5 -103 -27 -120 -30 -25 -56 -24 -82 2 -19 19 -20 31 -18
122 3 95 2 102 -17 105 -11 2 -23 0 -27 -4z"/>
<path d="M717 914 c-4 -4 -7 -67 -7 -141 0 -112 3 -135 16 -140 8 -3 19 -2 24
3 5 5 10 70 11 144 1 126 0 135 -18 138 -10 2 -22 0 -26 -4z"/>
<path d="M1211 893 c-50 -26 -74 -64 -78 -125 -9 -117 89 -187 206 -147 24 8
31 17 31 36 0 20 -3 24 -17 17 -28 -11 -90 -17 -119 -10 -21 6 -54 54 -54 80
0 3 46 2 101 -1 l102 -6 -5 52 c-4 41 -12 59 -34 81 -38 38 -88 46 -133 23z
m99 -53 c38 -38 27 -50 -50 -50 -56 0 -70 3 -70 15 0 25 38 55 70 55 17 0 39
-9 50 -20z"/>
<path d="M1580 818 c0 -40 -3 -103 -7 -140 -6 -68 -6 -68 19 -68 22 0 26 6 32
38 3 20 6 83 6 140 l0 102 -25 0 c-24 0 -25 -2 -25 -72z"/>
<path d="M1717 882 c-3 -4 -7 -68 -8 -142 l-3 -135 24 0 c24 0 25 2 28 80 3
126 17 155 71 155 48 0 56 -21 53 -137 l-3 -103 24 0 c24 0 25 3 31 89 9 112
-3 165 -44 186 -39 20 -72 19 -103 -5 -25 -20 -25 -20 -30 0 -5 20 -31 27 -40
12z"/>
<path d="M2063 861 c-43 -27 -63 -69 -63 -131 0 -91 48 -142 135 -144 67 -1
95 11 95 40 0 22 -3 24 -22 17 -38 -13 -116 -9 -132 7 -8 8 -18 28 -22 44 l-7
29 97 -5 c109 -6 113 -4 102 58 -16 85 -112 130 -183 85z m103 -39 c11 -7 34
-45 34 -56 0 -3 -34 -6 -75 -6 -41 0 -75 4 -75 9 0 4 9 20 21 35 20 26 69 36
95 18z"/>
<path d="M2332 854 c-33 -23 -46 -61 -31 -95 8 -21 26 -34 73 -51 48 -19 62
-29 64 -47 6 -41 -39 -52 -110 -27 l-38 14 0 -28 c0 -23 5 -29 31 -34 17 -3
52 -6 76 -6 36 0 50 6 75 30 25 26 29 36 24 62 -9 44 -22 56 -81 74 -65 18
-85 38 -63 60 17 17 56 20 106 10 28 -7 32 -5 32 13 0 40 -112 57 -158 25z"/>
</g>
</svg>
